<svg xmlns="http://www.w3.org/2000/svg" width="26" height="22" fill="none"><path fill="#100C18" fill-rule="evenodd" d="M19.656 20.904c.335.238.768.297 1.153.151.386-.146.669-.476.754-.875.906-4.254 3.102-15.023 3.926-18.893a.813.813 0 0 0-.271-.79.834.834 0 0 0-.83-.145C20.018 1.968 6.567 7.016 1.067 9.05a.861.861 0 0 0-.564.833c.013.368.26.688.618.796 2.466.737 5.703 1.763 5.703 1.763s1.512 4.568 2.3 6.891c.1.292.328.521.629.6.3.079.62-.004.845-.215l3.225-3.045s3.721 2.728 5.832 4.231Zm-11.47-9.039 1.75 5.77.388-3.654 10.61-9.57a.29.29 0 0 0 .034-.392.296.296 0 0 0-.391-.067l-12.39 7.913Z" clip-rule="evenodd"/></svg>