<svg xmlns="http://www.w3.org/2000/svg" width="155" height="44" fill="none"><path fill="#fff" d="M152.861 34.39a.623.623 0 0 1-.198-.032 1.312 1.312 0 0 1-1.127-1.488c1.69-12.331-6.989-23.737-19.345-25.423-5.168-.727-10.269.33-14.741 3.009-.53.33-1.226.23-1.657-.232-3.511-3.736-8.248-6.15-13.349-6.843-9.176-1.257-18.087 3.107-22.692 11.108-.364.628-1.16.86-1.789.496a15.94 15.94 0 0 0-5.4-1.752 15.77 15.77 0 0 0-14.674 6.083c-.43.595-1.259.694-1.855.264-.563-.43-.696-1.29-.265-1.851 4.008-5.29 10.6-8.034 17.16-7.108 1.821.231 3.544.727 5.167 1.487C83.396 3.845 92.969-.587 102.808.736a25.163 25.163 0 0 1 14.178 6.942c4.737-2.578 10.203-3.603 15.536-2.876 13.814 1.885 23.52 14.646 21.631 28.432-.099.661-.662 1.157-1.292 1.157Z"/><path fill="#fff" d="M2.204 43.747a1.307 1.307 0 0 1-1.325-1.322C.879 28.506 12.208 17.2 26.154 17.2c5.4 0 10.667 1.752 15.006 4.926A25.403 25.403 0 0 1 56.166 17.2c9.905 0 18.783 5.686 22.924 14.58a19.252 19.252 0 0 1 5.333-.761c6.625 0 12.754 3.57 16 9.356.364.628.132 1.454-.497 1.818-.63.33-1.458.132-1.789-.529-2.782-4.926-8.05-8-13.714-8-1.954 0-3.81.33-5.598.991a1.308 1.308 0 0 1-1.69-.727c-3.478-8.562-11.727-14.083-20.969-14.083-5.134 0-10.17 1.752-14.178 4.992-.496.363-1.192.363-1.656 0-4.074-3.273-8.977-4.992-14.178-4.992-12.488 0-22.625 10.116-22.625 22.58 0 .727-.596 1.322-1.325 1.322Z"/></svg>