<svg xmlns="http://www.w3.org/2000/svg" width="116" height="53" fill="none"><path fill="#fff" stroke="#100C18" stroke-width="1.526" d="m.806 51.186 1.11-45.521c.003-.124.021-.248.054-.367l.348-1.266a1.526 1.526 0 0 1 1.54-1.121l21.009.942 85.861-2.228 2.379-.013a.41.41 0 0 0 .382-.268c.156-.427.787-.32.794.135l.638 43.17.032 1.89a1.526 1.526 0 0 1-1.524 1.552l-58.613.063-8.953.05-13.218.636-27.515.935a2.973 2.973 0 0 0-2.303 1.222l-.184.253a1.265 1.265 0 0 1-1.537.41.506.506 0 0 1-.3-.474Z"/></svg>