<svg xmlns="http://www.w3.org/2000/svg" width="52" height="19" fill="none"><path fill="#fff" d="M.604 1.315c.604-.11 1.207-.165 1.811-.275.66-.055 1.263-.055 1.922-.11.604 0 1.208.055 1.867.055.604.055 1.263.165 1.867.22.659.11 1.263.22 1.867.33.659.164 1.263.384 1.867.548.604.165 1.208.385 1.812.604.604.22 1.208.494 1.757.769.604.274 1.153.604 1.702.933.604.33 1.098.66 1.647 1.044.55.366 1.08.75 1.593 1.153a33.034 33.034 0 0 1 2.91 2.636l1.263 1.427c.439.494.823 1.043 1.207 1.592l1.099 1.593-3.24-.55a32.122 32.122 0 0 1 1.647-1.208c.55-.366 1.117-.695 1.702-.988.623-.33 1.245-.622 1.867-.878a16.98 16.98 0 0 1 1.922-.66 24.83 24.83 0 0 1 3.954-.658 18.8 18.8 0 0 1 2.031 0h.494l.495.055.439.055.494.055c.714.054 1.318.22 1.977.384.658.146 1.299.33 1.921.549.604.274 1.208.494 1.757.824.604.274 1.153.604 1.703.933.549.366 1.061.75 1.537 1.153.512.403.988.824 1.428 1.263.439.476.86.952 1.262 1.428.366.512.714 1.025 1.044 1.537l-.769-.549-.714-.494a11.5 11.5 0 0 0-1.537-.934c-.55-.33-1.044-.604-1.593-.823a12.14 12.14 0 0 0-1.592-.66l-1.647-.548a13.117 13.117 0 0 0-1.647-.33c-.604-.11-1.153-.22-1.703-.22-.549-.054-1.098-.11-1.647-.11-.439 0-1.263 0-1.647.056-.55.036-1.098.11-1.647.22a7.443 7.443 0 0 0-1.593.329c-.549.11-1.08.256-1.592.44-.512.182-1.007.383-1.482.603-.513.22-1.007.476-1.483.769-.44.256-.897.53-1.373.823-.439.293-.86.623-1.263.989l-1.92 1.481-1.318-2.086-.933-1.373-.989-1.373-1.043-1.317-1.153-1.263c-.385-.385-.824-.769-1.208-1.153-.44-.385-.824-.77-1.263-1.153A93.75 93.75 0 0 1 15.1 7.408c-.44-.33-.933-.659-1.373-.988-.494-.275-.988-.604-1.482-.879-.494-.274-.988-.604-1.482-.823-.55-.275-1.044-.55-1.593-.769-.549-.22-1.098-.494-1.647-.714-.55-.164-1.098-.384-1.647-.604l-1.702-.494-1.758-.44c-.604-.109-1.208-.274-1.811-.383Z"/></svg>