<svg xmlns="http://www.w3.org/2000/svg" width="1440" height="895" fill="none"><g clip-path="url(#a)"><path fill="#fff" d="M1440 0h-25.92l-317.34 300.195L1440 9.99V0Zm0 114.345-165.88 126.72L1440 118.485v-4.14Zm0 19.8-101.34 74.61L1440 136.62v-2.475Zm0 19.439-95.85 67.95 95.85-65.7v-2.25Zm0 15.211-118.71 81.09 118.71-78.3v-2.79Zm0-126.315-253.53 208.8L1440 77.04V42.48Zm0 156.96-39.02 27.27 39.02-23.085v-4.185ZM0 189v10.755l184.95 85.68L0 189Zm0-65.385v1.35l67.14 43.245L0 123.615ZM0 110.7v.315l16.38 10.935L0 110.7Zm0-14.58v.54l25.92 17.865L0 96.12Zm0-12.24v1.26l58.95 41.984L0 83.879Zm0 74.565v10.62l108.54 58.095L0 158.445ZM0 57.24v1.17l11.205 7.83L0 57.24Zm1440 306.719-167.85 58.86 167.85-55.62v-3.24Zm0 21.015-167.44 50.76 167.44-47.61v-3.15Zm0 80.325-160.42 32.085 160.42-29.16v-2.925Zm0-65.204-246.19 70.875L1440 424.44v-24.345Zm0 38.295-118.21 26.415 118.21-18.27v-8.145Z"/><path fill="#F5F5F5" d="m1440 662.086-147.33-16.065L1440 665.64v-3.554Zm0 25.11-150.48-25.605L1440 690.886v-3.69Zm0 101.339-161.38-49.68 161.38 53.73v-4.05Zm0-82.71-229.01-43.47 229.01 73.98v-30.51Zm0 48.15-115.52-31.86L1440 765v-11.025ZM0 887.445v.945l50.04-20.205L0 887.445ZM53.46 900l62.055-31.5-80.37 31.5h18.314Zm-43.694 0 26.505-11.43L4.14 900h5.625Z"/><path fill="#fff" d="M0 426.285v1.215l108.585 16.425L0 426.285Zm0-10.8v1.215l113.22 20.295L0 415.485Zm0-46.665v1.485l130.995 31.68L0 368.82Zm0 27.27v12.06l198.495 37.26L0 396.09Zm0-13.05v3.51l79.965 18.135L0 383.04Z"/><path fill="#F5F5F5" d="m123.93 0 61.605 46.35L126.315 0h-2.385Zm28.89 0 45.405 37.71L154.53 0h-1.71Zm23.446 0 100.98 86.49L195.346 0h-19.08Zm931.544 0-52.38 87.975L1108.98 0h-1.17ZM1098 0l-42.93 76.05L1098.9 0h-.9Zm-35.55 0-6.75 13.32L1062.58 0h-.13Zm21.28 0-68.35 133.92L1091.25 0h-7.52Z"/><path fill="#100C18" d="M1349.96 631.822c-3.49 0-6.82-1.039-9.48-2.944l-.15.087a19.727 19.727 0 0 1-9.25 2.316c-6.25 0-11.79-2.922-14.85-7.792a14.902 14.902 0 0 1-2.07-5.455 17.045 17.045 0 0 1-4.38-5.303c-2.14-4.005-2.49-8.615-1.01-12.966 1.64-4.848 5.47-8.94 10.47-11.212a21.973 21.973 0 0 1 8.86-1.948c1.68-2.706 4.22-4.892 7.29-6.299a18.14 18.14 0 0 1 7.51-1.645c5.54 0 10.54 2.532 13.42 6.666.25-.115.5-.238.76-.367a18.295 18.295 0 0 1 7.51-1.624c6.15 0 11.6 3.095 14.26 8.074a13.661 13.661 0 0 1 1.24 9.676c.27.404.53.822.76 1.255 1.55 2.944 1.81 6.32.73 9.502-1.19 3.507-3.94 6.451-7.55 8.096a15.577 15.577 0 0 1-6.41 1.385c-.65 0-1.28-.036-1.9-.108-1.35 3.875-4.38 7.165-8.49 9.026a17.571 17.571 0 0 1-7.27 1.58Z"/><path fill="#fff" d="M1320.61 591.518c3.05-1.385 6.3-1.883 9.39-1.558 1.19-2.792 3.53-5.217 6.75-6.689 6.63-3.008 14.46-.779 17.54 5 .31.592.57 1.198.76 1.819.97-.845 2.12-1.58 3.37-2.143 6.63-3.031 14.48-.779 17.56 5 1.49 2.835 1.58 6.017.47 8.853a8.976 8.976 0 0 1 1.52 2.078c2.51 4.762.15 10.606-5.28 13.096-3.14 1.428-6.63 1.407-9.48.238-.22 4.091-2.91 8.052-7.34 10.065-5.35 2.424-11.52 1.299-15.11-2.446-.61.462-1.26.88-1.97 1.255-7.08 3.788-15.93 1.84-19.78-4.329a11.518 11.518 0 0 1-1.76-5.498c-1.9-1.298-3.5-2.987-4.59-5.043-3.81-7.165-.24-15.975 7.95-19.698Z"/><path fill="#100C18" d="M1261.12 88.92c4.86 0 9.45-1.215 13.14-3.375.09.03.17.075.23.135a32.54 32.54 0 0 0 12.82 2.655c8.64 0 16.34-3.375 20.57-8.955 1.44-1.935 2.43-4.05 2.88-6.255 2.52-1.665 4.54-3.735 6.03-6.075 2.97-4.59 3.46-9.855 1.39-14.85-2.25-5.535-7.56-10.215-14.49-12.825-3.82-1.44-8.05-2.205-12.24-2.25-2.34-3.06-5.85-5.58-10.12-7.2a29.966 29.966 0 0 0-10.4-1.89c-7.69 0-14.62 2.88-18.58 7.65-.33-.15-.68-.285-1.04-.405-3.28-1.26-6.84-1.89-10.39-1.89-8.55 0-16.11 3.555-19.76 9.27-2.25 3.465-2.83 7.29-1.71 11.07-.39.48-.75.96-1.08 1.44-2.16 3.375-2.52 7.2-1.03 10.845 1.66 4.05 5.49 7.425 10.48 9.315 2.75 1.035 5.85 1.575 8.87 1.575.9 0 1.78-.045 2.65-.135 1.85 4.455 6.03 8.19 11.75 10.35 3.15 1.17 6.61 1.8 10.03 1.8Z"/><path fill="#fff" d="M1301.8 42.75c-4.23-1.575-8.73-2.115-13-1.755-1.67-3.195-4.91-5.985-9.36-7.695-9.14-3.42-20.03-.855-24.3 5.76-.42.69-.77 1.38-1.04 2.07-1.35-.946-2.92-1.8-4.68-2.476-9.18-3.42-20.02-.855-24.3 5.76-2.07 3.24-2.16 6.885-.67 10.125-.81.72-1.53 1.486-2.07 2.386-3.51 5.445-.23 12.15 7.29 14.984 4.36 1.62 9.18 1.62 13.14.27.27 4.68 4 9.225 10.17 11.566 7.38 2.745 15.97 1.44 20.92-2.836.84.54 1.76 1.02 2.75 1.44 9.76 4.365 22.05 2.115 27.4-4.95 1.49-1.98 2.25-4.14 2.43-6.3 2.61-1.484 4.82-3.42 6.35-5.805 5.26-8.144.31-18.27-11.03-22.544Z"/></g><defs><clipPath id="a"><path fill="#fff" d="M0 0h1440v895H0z"/></clipPath></defs></svg>