<svg xmlns="http://www.w3.org/2000/svg" width="353" height="143" fill="none"><path fill="#F5F5F5" stroke="#100C18" stroke-width="2" d="M1.279 139.89 5.218 17.723c.006-.184.037-.367.093-.543l1.69-5.33a2.033 2.033 0 0 1 1.99-1.42l66.572 1.899 263.143-8.81 7.33-.114a1.276 1.276 0 0 0 1.153-.782c.531-1.259 2.395-.917 2.412.442l1.446 115.763.107 7.199a2.033 2.033 0 0 1-2.004 2.057l-182.335 2.133-27.434.43-40.515 2.141-84.718 3.434a9.133 9.133 0 0 0-6.655 3.307l-.563.679c-1.127 1.36-2.987 1.859-4.619 1.238a1.604 1.604 0 0 1-1.032-1.556Z"/></svg>