<svg xmlns="http://www.w3.org/2000/svg" width="23" height="24" fill="none"><path stroke="#100C18" stroke-linecap="round" stroke-linejoin="round" stroke-width="2.367" d="M19.656 12.928c.16-.387.16-.879.16-1.86 0-.983 0-1.475-.16-1.861a2.107 2.107 0 0 0-1.14-1.142c-.388-.16-.88-.16-1.861-.16h-6.113c-1.18 0-1.771 0-2.222.23-.397.202-.72.525-.922.922-.229.45-.229 1.04-.229 2.22v6.114c0 .982 0 1.474.16 1.86.215.517.625.928 1.141 1.141.387.16.879.16 1.86.16.983 0 1.475 0 1.861-.16m7.465-7.464a2.108 2.108 0 0 1-1.14 1.14c-.388.161-.88.161-1.861.161-.982 0-1.474 0-1.861.16a2.107 2.107 0 0 0-1.141 1.141c-.16.387-.16.88-.16 1.86 0 .983 0 1.474-.16 1.861a2.11 2.11 0 0 1-1.142 1.141m7.465-7.464a10.943 10.943 0 0 1-7.26 7.4l-.205.064m3.41-12.487v-.843c0-1.18 0-1.77-.23-2.221a2.108 2.108 0 0 0-.92-.922c-.452-.23-1.043-.23-2.223-.23H6.326c-1.18 0-1.77 0-2.221.23-.397.202-.72.525-.922.922-.23.45-.23 1.04-.23 2.221v5.902c0 1.18 0 1.77.23 2.221.202.398.524.72.922.922.45.23 1.04.23 2.222.23h.842"/></svg>