<svg xmlns="http://www.w3.org/2000/svg" width="179" height="54" fill="none"><path fill="#fff" stroke="#100C18" stroke-width="1.526" d="M.949 51.616 2.794 6.578c.008-.185.05-.368.123-.54l.606-1.413a1.53 1.53 0 0 1 1.444-.924l33.475.9 133.336-2.494 3.763-.021a.645.645 0 0 0 .556-.325c.324-.567 1.19-.346 1.203.307l.855 43.05.044 1.883a1.527 1.527 0 0 1-1.522 1.562l-91.867.247-13.901.078-20.529.676-43.12 1.03c-1.2.03-2.353.481-3.252 1.277l-.207.183a2.325 2.325 0 0 1-2.178.494.93.93 0 0 1-.674-.932Z"/></svg>