<svg xmlns="http://www.w3.org/2000/svg" width="665" height="107" fill="none"><path stroke="#100C18" stroke-width="2.146" d="m1.258 102.179 7.284-87.913a2.14 2.14 0 0 1 .477-1.182l3.156-3.856a2.146 2.146 0 0 1 1.685-.787l127.864 1.47L639.787 3.68l14.615-.083a2.146 2.146 0 0 0 1.44-.565l.979-.9c1.351-1.241 3.537-.323 3.597 1.511l2.763 84.562.176 4.547a2.147 2.147 0 0 1-2.136 2.23l-346.742 1.413-51.926.292-76.685 1.534-165.951 2.53a9.642 9.642 0 0 0-3.94.906l-6.229 2.909a5.37 5.37 0 0 1-3.055.447l-3.61-.533a2.147 2.147 0 0 1-1.825-2.301Z"/></svg>