<svg xmlns="http://www.w3.org/2000/svg" width="364" height="158" fill="none"><path stroke="#100C18" stroke-width="2.146" d="M1.865 154.649 5.908 18.474a2.16 2.16 0 0 1 .086-.544l1.75-5.965A2.182 2.182 0 0 1 9.9 10.397l68.467 2.197 271.06-9.463 7.526-.118a1.314 1.314 0 0 0 1.2-.837c.519-1.33 2.48-.997 2.496.422l1.51 128.896.112 8.096a2.181 2.181 0 0 1-2.151 2.205l-187.735 2.136-28.259.443-41.735 2.33-86.99 3.7a9.577 9.577 0 0 0-7.179 3.746l-.549.715c-1.135 1.48-3.114 2.021-4.818 1.319a1.604 1.604 0 0 1-.991-1.535Z"/></svg>