<svg xmlns="http://www.w3.org/2000/svg" width="1283" height="377" fill="none"><g fill="#fff" opacity=".5"><path d="m1167.11 303.072 2.67-.232 7.17-.775c1.58 0 3.28-.427 5.12-.737 1.96-.267 3.9-.629 5.81-1.085 1.69-.315 3.27-.965 4.64-1.898a.808.808 0 0 0 0-.31v-.659a6.332 6.332 0 0 0-2.45-1.279 33.995 33.995 0 0 0-3.45-.775c-1.27-.233-2.67-.426-4.07-.62-2.84-.349-5.86-.698-8.75-.969-6.25-.62-13.12-1.085-19.94-1.55l-10.85-.736c-3.58-.271-7.25-.543-10.93-.93-1.84 0-3.63-.427-5.46-.737-.92 0-1.8-.31-2.72-.542a9.308 9.308 0 0 1-1.35-.465c-.4 0-.88-.465-.83-.853.04-.387.22-.387.43-.503h.75l1.57-.737c.98-.186 1.98-.315 2.98-.387 1.96 0 3.8-.271 5.64-.426 3.71-.233 7.39-.504 10.89-.892 1.66-.169 3.31-.415 4.94-.736 1.53-.31 2.8-.736 2.97-1.124.18-.387 0-.426-.3-.659l-.62-.348h-.39c-.64-.217-1.3-.386-1.97-.504l-2.32-.388c-3.28-.503-6.73-.891-10.14-1.24-6.78-.659-13.51-1.201-19.81-1.782-6.3-.582-12.33-1.085-17.49-1.938-1.31-.167-2.6-.427-3.85-.775a3.636 3.636 0 0 1-1.49-.736.457.457 0 0 1-.1-.271c0-.098.04-.193.1-.272.17-.168.38-.3.61-.387.5-.219 1.03-.388 1.58-.504l1.48-.426 2.76-.814c.83-.31 1.62-.581 2.27-.891a2 2 0 0 0 1.14-.93c0-.349-.26-.659-.83-.892-.59-.272-1.2-.493-1.84-.658-2.67-.698-5.03-1.124-6.6-1.396l-2.45-.465 2.49.388 3.02.504c1.14 0 2.49.465 3.89.814.53.07 1.06.173 1.58.31l.83.503a.82.82 0 0 1 .3.582c0 .426-.57.813-1.22 1.162-.75.37-1.52.694-2.32.969l-2.71.891-1.49.426-1.27.427c-.3 0-.39.31-.3.426.29.219.63.378 1 .465.97.233 2.23.465 3.5.659 2.58.349 5.43.659 8.36.93l9.18.775c6.34.504 13.12 1.007 20.03 1.627 3.45.349 6.95.698 10.49 1.202l2.63.426c.89.16 1.77.381 2.62.659l.57.232.88.543c.48.387.78.852.52 1.356-.42.563-1.06.975-1.79 1.163-.85.296-1.73.529-2.63.697-1.82.353-3.66.625-5.51.814-3.71.426-7.48.698-11.19.969l-5.47.387-1.88.427-.83.193.79.233 2.18.465c1.62.271 3.33.465 5.08.659 3.49.387 7.08.697 10.62.968l10.59.775c6.95.582 13.68 1.357 19.98 1.977 3.15.349 6.21.697 9.1 1.124 1.44.193 2.88.426 4.37.697 1.49.271 2.45.659 3.67.891 1.05.249 2.01.714 2.8 1.357v.62h.35c.02.141.02.284 0 .426l-.39.388a14.483 14.483 0 0 1-5.55 2.247 100.092 100.092 0 0 1-11.2 1.666c-3.19.349-5.73.543-7.48.814h-2.71Zm-141.73-17.157h.64l1.75-.285c.74 0 1.66-.245 2.67-.449l3.22-.653 1.75-.612.92-.244.88-.164a35.11 35.11 0 0 0 3.36-1.264l1.24-.734.65-.408.59-.408.56-.449V280l.36-.53v-.408c.07-.312.04-.635-.09-.931a1.703 1.703 0 0 0-.64-.741 9.221 9.221 0 0 0-2.72-1.51 29.532 29.532 0 0 0-3.59-1.142l-1.89-.448-1.79-.408-3.36-.653-2.67-.449-2.35-.367h2.53l2.9.245h1.8l1.93.245 2.07.326 2.12.408 2.21.53c.69 0 1.43.408 2.07.653 1.31.39 2.52.984 3.59 1.754l.6.53.37.571c.06.2.06.412 0 .612.07.2.07.412 0 .612l.64.938-.41.49-.23.244-.65.531c-.48.331-.98.631-1.51.897l-1.85.816c-1.31.513-2.66.935-4.05 1.264-.68.202-1.37.365-2.07.49l-2.02.367c-2.63.408-4.98.612-6.59.734h-1.88l-1.06.245Zm-539.704-82.72s-5.333 0-13.492-.898l-6.452-.614c-2.293-.284-4.693-.52-7.146-.898-2.453-.378-4.959-.662-7.412-1.087-2.453-.425-5.013-.945-7.413-1.559a26.047 26.047 0 0 1-6.292-2.316 2.78 2.78 0 0 1-.964-.701 2.388 2.388 0 0 1-.529-1 1.71 1.71 0 0 1 .244-.973c.178-.299.444-.551.769-.728a17.772 17.772 0 0 1 5.333-2.174c2.026-.519 4.052-.897 5.972-1.228 3.786-.662 7.093-1.04 9.439-1.276l2.666-.283h.96l-3.359.614c-2.187.425-5.333.992-8.693 1.748a55.039 55.039 0 0 0-5.332 1.371 14.608 14.608 0 0 0-4.266 1.842c-.96.709-.694 1.465.533 2.174a25.89 25.89 0 0 0 5.333 1.89c2.133.567 4.479 1.04 6.825 1.465 2.347.425 4.746.851 7.039 1.181l6.826 1.04 6.186.85 9.332 1.182 3.893.378Zm-165.645 48.379s-3.663 0-9.268-.617l-4.433-.422c-1.575-.194-3.224-.357-4.909-.616-1.685-.26-3.407-.455-5.092-.747a66.987 66.987 0 0 1-5.093-1.071 17.918 17.918 0 0 1-4.322-1.591 1.904 1.904 0 0 1-.662-.481 1.639 1.639 0 0 1-.364-.688 1.168 1.168 0 0 1 .168-.668c.122-.206.304-.378.528-.5a12.217 12.217 0 0 1 3.663-1.494c1.392-.357 2.785-.616 4.103-.844a89.72 89.72 0 0 1 6.485-.876l1.831-.195h.66l-2.308.422c-1.502.292-3.664.682-5.972 1.201a37.963 37.963 0 0 0-3.663.942 10.033 10.033 0 0 0-2.931 1.266c-.659.487-.476 1.006.367 1.493 1.158.561 2.388.997 3.663 1.299 1.465.389 3.077.714 4.689 1.006 1.612.292 3.261.584 4.836.811l4.689.715 4.25.584 6.411.812 2.674.259Zm159.567 67.442s-4.775 0-12.081-.804l-5.777-.55c-2.053-.254-4.202-.465-6.398-.804-2.197-.338-4.441-.592-6.637-.973-2.196-.381-4.488-.846-6.637-1.396a23.356 23.356 0 0 1-5.634-2.073 2.486 2.486 0 0 1-.863-.628 2.14 2.14 0 0 1-.474-.895 1.536 1.536 0 0 1 .218-.872c.16-.268.398-.493.689-.652a15.924 15.924 0 0 1 4.775-1.946c1.814-.465 3.629-.804 5.348-1.1 3.39-.592 6.35-.931 8.451-1.142l2.387-.254h.86l-3.008.55c-1.958.381-4.775.888-7.783 1.565-1.616.331-3.21.741-4.775 1.227a13.103 13.103 0 0 0-3.82 1.65c-.859.635-.621 1.312.478 1.947a23.2 23.2 0 0 0 4.774 1.692c1.91.508 4.011.931 6.112 1.312s4.25.761 6.303 1.057l6.112.931 5.538.762 8.356 1.058 3.486.338Zm-217.055-3.027s-5.333 0-13.492-.898l-6.452-.614c-2.293-.283-4.693-.52-7.146-.898-2.453-.378-4.959-.661-7.412-1.086-2.453-.426-5.013-.946-7.412-1.56a26.094 26.094 0 0 1-6.293-2.315 2.78 2.78 0 0 1-.963-.701 2.378 2.378 0 0 1-.53-1 1.723 1.723 0 0 1 .244-.974c.178-.299.444-.55.769-.727a17.772 17.772 0 0 1 5.333-2.174c2.026-.52 4.053-.898 5.972-1.229a131.365 131.365 0 0 1 9.439-1.276l2.666-.283h.96l-3.359.614c-2.187.426-5.333.993-8.692 1.749a55.054 55.054 0 0 0-5.333 1.37 14.622 14.622 0 0 0-4.266 1.843c-.96.709-.693 1.465.533 2.173a25.892 25.892 0 0 0 5.333 1.891c2.133.567 4.479 1.039 6.826 1.464 2.346.426 4.746.851 7.039 1.182l6.825 1.039 6.186.851 9.332 1.181 3.893.378Zm165.061-130.183c.059-.222.168-.43.32-.614a5.538 5.538 0 0 1 1.013-.992l.853-.52a7.13 7.13 0 0 1 1.12-.567l.587-.331.746-.284 1.6-.567 1.813-.519c.664-.208 1.34-.381 2.026-.52 1.333-.331 2.88-.614 4.426-.898l2.4-.331 2.453-.331 5.013-.472h22.077-4.96l-3.359.236-3.946.236h-4.373c-1.493 0-3.093.237-4.639.426l-4.693.472-2.293.284-2.24.331-2.186.33-2.08.378-1.973.378-1.76.378-1.653.473h-.746l-.694.236c-.906.284-1.653.615-2.346.898a17.11 17.11 0 0 0-1.493.756l-.8.567-.213.567Zm-147.466 53.822c.041-.152.115-.295.22-.422.198-.252.432-.481.696-.681l.586-.357c.242-.151.5-.282.77-.39l.402-.227.513-.195 1.099-.39 1.246-.357c.456-.142.921-.261 1.392-.357.916-.227 1.978-.422 3.041-.616l1.648-.228 1.685-.227 3.444-.325h15.167-3.407l-2.308.163-2.711.162h-3.004c-1.026 0-2.125.162-3.187.292l-3.224.325-1.575.195-1.539.227-1.502.227-1.429.26-1.355.259-1.209.26-1.136.325h-.513l-.476.162c-.623.195-1.136.422-1.612.617-.352.157-.694.33-1.026.519l-.549.39-.147.389Zm147.465 63.819c.053-.199.151-.386.287-.55.258-.329.563-.628.907-.889l.764-.465a6.375 6.375 0 0 1 1.003-.508l.525-.296.668-.254 1.433-.508 1.623-.465a17.99 17.99 0 0 1 1.814-.465c1.194-.297 2.579-.55 3.964-.804l2.148-.297 2.197-.296 4.488-.423h19.767-4.44l-3.008.212-3.534.211h-3.915c-1.337 0-2.769.212-4.154.381l-4.202.423-2.053.254-2.005.296-1.958.296-1.862.339-1.767.338-1.575.339-1.481.423h-.668l-.621.211c-.812.254-1.48.551-2.101.804-.458.205-.905.431-1.337.677l-.716.508-.191.508ZM204.471 298.6c.059-.222.168-.43.32-.614a5.576 5.576 0 0 1 1.013-.993l.853-.519a7.13 7.13 0 0 1 1.12-.567l.587-.331.746-.284 1.6-.567 1.813-.519c.664-.208 1.34-.382 2.027-.52 1.333-.331 2.879-.615 4.426-.898l2.399-.331 2.453-.331 5.013-.472h22.077-4.959l-3.36.236-3.946.236h-4.373c-1.493 0-3.093.237-4.639.426l-4.693.472-2.293.284-2.24.331-2.186.33-2.08.378-1.973.378-1.759.378-1.654.473h-.746l-.693.236c-.907.284-1.654.614-2.347.898-.512.229-1.01.481-1.493.756l-.8.567-.213.567Z"/><path d="m609.41 180.003 7.466-.519c4.799-.331 11.571-.756 19.73-1.371 8.159-.614 17.651-1.276 27.677-2.173a607.36 607.36 0 0 0 15.304-1.512c2.613-.331 5.333-.615 7.679-.993s4.959-.803 7.092-1.323a14.024 14.024 0 0 0 2.773-.85c.747-.284.96-.567.854-.804-.107-.236-1.867-1.559-3.733-2.173a101.16 101.16 0 0 0-13.652-2.647l-3.573-.567c-1.226-.236-2.399-.425-3.572-.756a4.472 4.472 0 0 1-1.76-.803.455.455 0 0 1-.158-.153.39.39 0 0 1 0-.402.457.457 0 0 1 .158-.154c.245-.207.536-.367.853-.472a21.212 21.212 0 0 1 3.573-.756c2.346-.378 4.479-.615 6.612-.898l6.133-.803 5.332-.756a37.207 37.207 0 0 0 4.533-.946c.513-.07.994-.266 1.387-.567 0 0 0-.378-.374-.567a13.944 13.944 0 0 0-3.039-.803c-2.133-.378-3.946-.661-5.333-.803h-1.866 1.919c1.28 0 3.147.283 5.333.614 1.244.15 2.462.436 3.626.851l1.013.189c.075.07.117.163.117.26a.355.355 0 0 1-.117.259 3.913 3.913 0 0 1-1.653.851 81.421 81.421 0 0 1-10.185 2.032l-6.026.945c-2.026.283-4.319.567-6.346.945-.894.118-1.77.324-2.613.614h.534c1.013.258 2.047.448 3.093.567l3.519.567c2.453.331 4.959.709 7.412 1.134 2.477.395 4.919.948 7.306 1.654 1.093.314 2.147.726 3.146 1.229.423.229.817.498 1.174.803.169.118.314.262.426.425v.237c.158.081.291.194.391.329.1.136.162.29.183.45a.923.923 0 0 1-.064.475 1.03 1.03 0 0 1-.297.4 4.047 4.047 0 0 1-1.386.85 22.039 22.039 0 0 1-3.573 1.134 86.346 86.346 0 0 1-7.785 1.418c-2.667.378-5.333.709-7.946.992-5.333.567-10.665 1.04-15.625 1.465l-14.771.992a558.71 558.71 0 0 1-13.278.756c-8.266.426-15.198.662-19.997.851l-7.626.283Zm-389.343 23.192 5.301-.369c3.407-.235 8.216-.537 14.009-.973 5.793-.436 12.532-.906 19.65-1.543a431.86 431.86 0 0 0 10.867-1.074c1.855-.235 3.786-.436 5.452-.705 1.666-.268 3.521-.57 5.035-.939a9.935 9.935 0 0 0 1.969-.604c.53-.201.682-.403.606-.57-.076-.168-1.325-1.107-2.65-1.544a71.892 71.892 0 0 0-9.693-1.878l-2.537-.403c-.871-.168-1.704-.302-2.537-.537a3.19 3.19 0 0 1-1.249-.57.325.325 0 0 1-.112-.109.28.28 0 0 1-.04-.143.28.28 0 0 1 .04-.143.314.314 0 0 1 .112-.108c.174-.147.38-.262.606-.336.824-.25 1.674-.43 2.537-.537 1.666-.268 3.18-.436 4.694-.637l4.355-.571 3.786-.536a26.63 26.63 0 0 0 3.218-.671 2.1 2.1 0 0 0 .985-.403s0-.268-.265-.403a9.896 9.896 0 0 0-2.159-.57c-1.514-.268-2.801-.47-3.786-.57h-1.325 1.363c.909 0 2.234.201 3.786.436.883.106 1.748.309 2.575.604l.719.134a.25.25 0 0 1 .083.184.25.25 0 0 1-.083.185c-.326.287-.73.495-1.173.604a57.76 57.76 0 0 1-7.232 1.443l-4.279.671c-1.438.201-3.066.402-4.505.671a9.537 9.537 0 0 0-1.855.436h.378c.72.183 1.454.317 2.196.402l2.499.403c1.742.235 3.521.503 5.263.805a41.09 41.09 0 0 1 5.187 1.174 12.88 12.88 0 0 1 2.234.873c.3.162.579.354.833.57.12.084.223.186.303.302v.168a.791.791 0 0 1 .277.234.675.675 0 0 1 .085.656.737.737 0 0 1-.211.284 2.87 2.87 0 0 1-.984.604c-.816.338-1.665.607-2.537.805a61.475 61.475 0 0 1-5.528 1.007c-1.893.268-3.786.503-5.641.704-3.786.403-7.573.738-11.094 1.04l-10.488.705c-3.369.235-6.512.402-9.427.537-5.869.302-10.791.469-14.199.604l-5.414.201Zm441.55 15.84 6.505-.52 17.278-1.465c7.039-.662 15.305-1.418 24.05-2.315l13.278-1.56c4.261-.484 8.483-1.21 12.639-2.173.8-.206 1.584-.459 2.346-.756.587-.284.693-.52.587-.662-.835-.965-2.057-1.608-3.413-1.796a91.59 91.59 0 0 0-12.105-2.173l-3.2-.473a28.047 28.047 0 0 1-3.253-.614 4.075 4.075 0 0 1-1.706-.709.483.483 0 0 1-.134-.331c0-.12.047-.237.134-.33.209-.191.464-.336.746-.426a17.105 17.105 0 0 1 3.147-.756l5.759-.85 5.332-.756 4.746-.756c1.44-.284 2.827-.567 3.893-.851a2.51 2.51 0 0 0 1.12-.52s0-.283-.32-.472a14.457 14.457 0 0 0-2.773-.662c-1.866-.331-3.466-.52-4.533-.661h-1.706 1.76l4.799.472c1.103.141 2.191.362 3.253.662h.693c.065.074.1.166.1.26a.396.396 0 0 1-.1.26 3.343 3.343 0 0 1-1.386.756 62.499 62.499 0 0 1-8.746 1.937l-5.332.898-5.333.945c-.747.104-1.48.278-2.186.52h.586a65.23 65.23 0 0 0 5.653 1.181c2.133.283 4.373.567 6.612.945 2.233.318 4.442.76 6.613 1.323.99.296 1.952.66 2.879 1.087.409.17.786.393 1.12.661l.48.709c.13.149.2.332.2.52a.79.79 0 0 1-.2.52 3.456 3.456 0 0 1-1.173.803c-.992.431-2.028.779-3.093 1.04-2.186.567-4.479.945-6.719 1.323s-4.586.709-6.879.992c-4.586.567-9.172 1.04-13.652 1.465-4.479.425-8.745.756-12.851 1.087l-11.572.803c-7.199.473-13.225.756-17.491.992l-6.452.426Zm-82.122-81.843h-2.507a56.936 56.936 0 0 1-6.399-.897 11.915 11.915 0 0 1-3.679-1.276 1.415 1.415 0 0 1-.557-.5 1.201 1.201 0 0 1-.19-.682 2.71 2.71 0 0 1 1.333-1.134 19.323 19.323 0 0 1 4.48-1.465l2.559-.472 2.56-.473 2.613-.378 2.666-.33 5.333-.52 4.906-.378 4.426-.284 6.612-.283h2.56l-2.4.331-2.719.33-3.573.473-8.906 1.039-4.959.662-2.453.331-2.506.378-2.453.378-2.293.425a17.49 17.49 0 0 0-3.733 1.04 3.279 3.279 0 0 0-.853.519.432.432 0 0 0 0 .567 7.85 7.85 0 0 0 2.453 1.087c1.751.52 3.531.962 5.332 1.323l2.347.189Zm4.159-15.83 5.706-.614 6.559-.709 8.585-.756 10.239-.803 11.465-.709 6.132-.331 6.293-.283h12.852c4.372 0 8.585 0 12.744-.284 4.16-.283 8.319-.283 12.159-.567l2.719-.236a13.497 13.497 0 0 0 2.187-.378 13.387 13.387 0 0 0-2.08-.425 80.155 80.155 0 0 0-4.906-.567l-4.959-.426a19.991 19.991 0 0 1-2.453-.425h-1.12l-.32-.331a.262.262 0 0 1-.06-.165c0-.059.021-.117.06-.165 0-.379.747-.615 1.28-.851l1.653-.52c2.24-.567 4.319-.945 6.026-1.228l4.106-.615h1.44s-1.92.331-5.333 1.04c-1.6.378-3.573.803-5.333 1.417l-1.333.52c-.426 0-.746.378-.746.52 0 .142 1.226.473 2.666.614l4.853-.708c1.759 0 3.573 0 5.332.472.99.136 1.97.325 2.933.567l.853.142c.267 0 .534.283.534.52v.33a.864.864 0 0 1-.32.284l-.8.331a18.96 18.96 0 0 1-3.093.614l-3.04.331c-4.052.331-8.265.52-12.531.661-4.266.142-8.639 0-12.852.378h-12.745l-12.265.473-11.518.567-10.292.567-8.692.52-6.719.378-5.866.85Zm84.631-17.341-.32-.237a.771.771 0 0 1-.32-.378 1.776 1.776 0 0 1 0-.472 1.255 1.255 0 0 1 0-.615 2.46 2.46 0 0 1 1.013-1.37l1.12-.709 1.493-.661h.853l.907-.284a15.63 15.63 0 0 1 1.973-.567c1.44-.33 2.88-.709 4.479-.992l2.4-.378 2.506-.378c1.654 0 3.307-.425 5.013-.567l4.533-.756c1.6 0 3.146 0 4.639-.237h12.852l-2.293.284-6.026-.047-4 .378-4.479.425-4.693.52c-1.599 0-3.146.378-4.746.567l-2.346.33-2.24.331c-1.546.237-2.879.52-4.266.804-.63.114-1.253.255-1.866.425h-1.707l-1.493.52-1.173.52a6.23 6.23 0 0 0-1.493 1.039c-.15.158-.276.333-.373.52a.633.633 0 0 0 0 .425 1.22 1.22 0 0 0 0 .662l.053.898Zm87.134 46.213 22.504-2.174 10.665-1.087 11.999-1.323c4.106-.519 8.318-.992 12.478-1.654 2.08-.33 4.106-.661 5.972-1.086l2.613-.615a3.393 3.393 0 0 0 1.44-.708l-.64-.284c-.533 0-1.653-.425-2.613-.661-1.973-.52-3.839-1.04-5.652-1.607a21.141 21.141 0 0 1-4.906-2.079c-.587-.426-1.12-.993-.853-1.56a2.03 2.03 0 0 1 .906-.803 5.665 5.665 0 0 1 1.387-.567 35.558 35.558 0 0 1 6.185-1.134c2.08-.284 4.107-.425 6.08-.614 3.999-.284 7.732-.473 11.198-.662 6.986-.283 12.745-.472 16.798-.567h6.399l-6.293.425-16.371.662c-3.413.236-7.092.52-10.665.898l-6.132.425a36.955 36.955 0 0 0-5.333 1.04c-1.333.472-1.493.897-.533 1.512a20.149 20.149 0 0 0 4.212 1.654c1.707.519 3.573.992 5.333 1.464l1.44.331 1.653.473c.53.179 1.031.417 1.493.709a.846.846 0 0 1 .362.499.766.766 0 0 1-.095.587c-.669.695-1.563 1.19-2.56 1.418a33.548 33.548 0 0 1-3.146.803c-2.133.473-4.266.804-6.453 1.134-4.372.615-8.692 1.182-12.905 1.607-4.212.425-8.318.85-12.211 1.134l-11.092.898c-13.385 1.134-22.664 1.512-22.664 1.512Z" opacity=".5"/><path d="M769.016 280.889h-2.453l-6.879-.331c-5.92-.284-14.399-.709-24.477-1.323l-16.318-1.04-18.077-1.37c-6.24-.567-12.692-1.134-19.198-1.796a446.908 446.908 0 0 1-19.517-2.41c-3.2-.519-6.399-1.086-9.386-1.842a21.428 21.428 0 0 1-4.212-1.418 2.87 2.87 0 0 1-1.28-1.181 1.09 1.09 0 0 1 0-.709c.146-.238.346-.447.586-.615l.427-.283h.48c.34-.17.697-.312 1.066-.425l.96-.331.96-.284 3.52-1.228a8.18 8.18 0 0 0 2.346-1.229v-.425a3.732 3.732 0 0 0-1.12-.378 35.816 35.816 0 0 0-3.946-.709l-4.319-.52-8.693-.897-15.997-1.702a636.318 636.318 0 0 1-23.304-3.118l-6.399-.993-2.24-.378 2.293.284 6.559.85c5.653.709 13.812 1.607 23.677 2.599l15.998 1.465 8.799.804 4.586.472c1.546 0 3.093.425 4.693.803.8.156 1.56.445 2.239.851a.972.972 0 0 1 .356.274.845.845 0 0 1 .178.387c.06.102.092.216.092.331a.65.65 0 0 1-.092.331 8.59 8.59 0 0 1-3.04 1.796c-1.173.472-2.4.897-3.679 1.323l-.96.33-.907.284-.693.284h-.267v.283s.373.378.693.567c1.054.469 2.163.834 3.307 1.087 2.666.661 5.652 1.181 8.745 1.654 6.186.992 12.638 1.748 19.038 2.457l18.237 2.032 17.918 1.559 15.998 1.323c10.291.756 18.61 1.56 24.476 1.56l9.226.945Zm149.312 27.879h-4.959c-3.146 0-7.626 0-13.012-.52-2.719 0-5.652-.378-8.692-.661l-4.693-.567c-.8 0-1.599-.237-2.399-.426a19.513 19.513 0 0 1-2.4-.661 3.09 3.09 0 0 1-1.066-.567.77.77 0 0 1 0-.851 3.682 3.682 0 0 1 1.919-1.134 33.358 33.358 0 0 1 4.906-1.134l4.96-.803c1.546-.284 3.146-.567 4.372-.898l.694-.236h-.747c-1.333 0-3.04-.426-4.693-.615l-9.972-1.086c-6.505-.709-12.531-1.465-17.544-2.316-5.013-.85-8.959-1.654-11.572-2.315l-3.039-.803-1.014-.284h1.174l3.253.614c2.826.52 6.932 1.182 11.998 1.796l8.265.992 9.333.898c3.252.331 6.665.567 10.131.945 1.737.158 3.464.395 5.173.709.509.088 1.008.215 1.493.378.285.071.556.183.8.331.237.126.409.33.48.567a.583.583 0 0 1 0 .331h-.267l-.639.378c-.436.162-.881.304-1.334.425-1.752.43-3.533.761-5.332.992-1.707.331-3.413.52-4.96.803-1.388.202-2.76.486-4.106.851a3.893 3.893 0 0 0-.906.425h.373a19.454 19.454 0 0 0 3.733 1.607l4.319.614 8.266.851 12.851.898 4.853.472Z"/><g opacity=".5"><path d="M749.979 115.668s7.092-.378 19.358-1.275c6.132-.426 13.598-.993 21.97-1.843 4.213-.426 8.639-.898 13.171-1.56 2.24-.33 4.533-.661 6.72-1.134 1.066 0 2.186-.472 3.092-.756a5.606 5.606 0 0 0 2.187-.992c.853-.662-1.12-1.418-3.306-1.937a73.464 73.464 0 0 0-7.466-1.323c-5.333-.757-11.092-1.324-17.064-1.843-5.973-.52-12.159-.993-18.451-1.701l-4.693-.568c-1.6 0-3.146-.425-4.746-.756l-1.226-.33a5.089 5.089 0 0 1-1.227-.473c-.427 0-.64-.709 0-1.04a4.71 4.71 0 0 1 1.493-.52 35.882 35.882 0 0 1 5.333-.66c6.772-.473 13.598-.662 20.53-.804l20.691-.33 42.661-.332h42.661c14.024 0 27.783-.378 41.061-.945a490.55 490.55 0 0 0 19.41-1.087c3.093 0 6.186-.472 9.119-.803a49.305 49.305 0 0 0 7.732-1.417c.374 0 .8-.331.854-.473a.354.354 0 0 0 .093-.236.354.354 0 0 0-.093-.237 9.365 9.365 0 0 0-2.773-.992c-2.4-.567-5.333-.992-7.733-1.37-5.332-.756-10.665-1.323-15.997-1.796-5.333-.472-10.239-.898-14.985-1.276l-13.598-.992a2017.908 2017.908 0 0 0-22.237-1.465l-19.411-1.087h5.066c3.36 0 8.266.331 14.451.662 6.186.33 13.759.661 22.344 1.181 8.586.52 18.344 1.087 28.85 1.985 5.332.472 10.665.992 15.997 1.748 2.773.378 5.333.804 8.266 1.418h.96l1.013.283.907.379.799.377c.239.103.426.281.525.5a.844.844 0 0 1 .009.682c-.403.45-.938.794-1.547.992a42.239 42.239 0 0 1-8.745 1.701 197.42 197.42 0 0 1-9.439.945c-6.346.52-12.958.85-19.624 1.182-13.385.567-27.25.85-41.381.992-14.131.142-28.423 0-42.661.284-14.238.283-28.583 0-42.661 0h-20.85c-6.826 0-13.652.33-20.051.755-1.546 0-3.2.284-4.266.473h.427l.853.236c1.28.284 2.773.473 4.213.71l4.532.566c6.079.709 12.212 1.276 18.184 1.843 5.973.567 11.732 1.985 17.065 2.788 2.719.425 5.332.85 7.839 1.465 1.154.246 2.266.627 3.306 1.134h.373v.236c.156.118.283.262.374.425a.886.886 0 0 1 0 .52s0 .331-.374.425a8.267 8.267 0 0 1-2.826 1.324c-1.12.33-2.293.567-3.413.803-2.346.425-4.746.803-7.092 1.087-4.64.614-9.172 1.039-13.385 1.417a796.347 796.347 0 0 1-22.237 1.654c-6.239.378-11.039.567-14.345.756l-4.586.425Z"/><path d="M680.281 113.022s9.599-.378 26.344-1.275c8.372-.473 18.504-1.04 30.022-1.938 5.759-.425 11.892-.945 18.078-1.748l4.532-.662a21.562 21.562 0 0 0 3.947-.992c.48 0 .693-.378.533-.567a2.792 2.792 0 0 0-1.173-.567 39.985 39.985 0 0 0-4.48-.851c-6.612-.992-14.025-1.464-21.703-2.079-7.679-.614-15.572-1.276-23.624-2.126-3.999-.425-8.052-.85-12.105-1.418l-6.079-.945-2.986-.614a19.934 19.934 0 0 1-2.88-.85 4.851 4.851 0 0 1-1.227-.662.665.665 0 0 1-.203-.473c0-.174.072-.342.203-.472.314-.366.74-.645 1.227-.803h.8l.8-.237a62.63 62.63 0 0 1 6.559-.945c4.479-.425 8.959-.709 13.491-.945 18.131-.803 36.902-.945 55.939-1.087 19.038-.142 38.342-.236 57.646-.472 9.652 0 19.304 0 28.796-.567 2.346 0 4.693 0 6.932-.331 1.12 0 2.24 0 2.987-.33v.283h-.48c-.853 0-1.92-.331-3.04-.473l-3.306-.378c-2.24-.283-4.533-.472-6.826-.662-9.225-.803-18.504-1.417-27.676-2.031l-13.705-.85-13.491-1.04c-4.48-.426-8.852-.898-13.119-1.513-2.079-.33-4.212-.708-6.185-1.18a21.052 21.052 0 0 1-2.827-.946c-.8-.378-1.546-.898-1.386-1.512.16-.614 1.013-1.087 1.866-1.418a17.483 17.483 0 0 1 2.827-.803 63.95 63.95 0 0 1 6.025-1.087c4.107-.614 8.213-.992 12.319-1.37 8.159-.709 15.998-1.181 23.943-1.56 7.946-.377 15.305-.661 22.557-.897 14.451-.473 27.73-.662 39.515-.804h30.556c-8.479 0-18.718 0-30.503.378-11.785.379-25.01.567-39.408 1.087a884.6 884.6 0 0 0-22.397.993c-7.679.425-15.624.897-23.623 1.653-4 .378-8.053.804-11.892 1.37-1.92.284-3.84.615-5.333.993-.768.177-1.518.414-2.239.709-.587 0-1.014.472-1.014.709 0 .236 0 .425.747.709.708.27 1.439.491 2.186.661a53.45 53.45 0 0 0 5.653 1.04c3.999.614 8.265 1.04 12.638 1.464 4.373.426 8.799.71 13.332.993l13.705.85c9.172.615 18.504 1.182 27.836 1.985l7.039.662 3.519.377c1.174 0 2.347.331 3.627.615l.906.094c.413.096.796.274 1.12.52a.418.418 0 0 1 .148.307.418.418 0 0 1-.148.307 1.136 1.136 0 0 1-.64.378c-.386.168-.8.28-1.226.331-1.387 0-2.613.331-3.84.473l-7.359.378c-9.652.33-19.304.472-29.009.614-19.358 0-38.662.284-57.699.378-19.038.095-37.702 0-55.619.992-4.426 0-8.852.426-13.012.85-4.159.426-9.332 1.182-6.559 1.938a35.29 35.29 0 0 0 4.959 1.229c1.867.33 3.786.661 5.76.898 3.892.567 7.892 1.04 11.838 1.512 7.946.85 15.998 1.559 23.41 2.221 7.412.661 15.091 1.134 21.97 2.173a39.21 39.21 0 0 1 4.587 1.04 3.692 3.692 0 0 1 1.866.992.712.712 0 0 1 0 .331 1.26 1.26 0 0 1 0 .378l-.427.284h-.48c-.724.276-1.473.498-2.239.661-.747 0-1.547.331-2.347.425l-4.799.709c-6.346.756-12.532 1.181-18.344 1.607-11.625.803-21.811 1.276-30.183 1.654-8.372.378-15.038.614-19.517.803l-6.933.472Z"/></g></g><path fill="#fff" d="M544.244 325.27c-.658.252-2.176.73-1.872 1.713.303.983 2.075 1.159 2.834 1.311 4.232.869 8.598.869 12.83 0a.306.306 0 0 0 .156-.145.3.3 0 0 0-.101-.384.298.298 0 0 0-.207-.051 33.411 33.411 0 0 1-10.122.428 18.278 18.278 0 0 1-4.024-.73c-.228 0-.885-.278-.911-.605-.025-.328 1.24-.807 1.468-.882.228-.076.202-.706-.152-.58l.101-.075Zm3.216 5.72c2.88.352 5.779.529 8.68.529a.303.303 0 1 0 0-.605 71.3 71.3 0 0 1-8.68-.403c-.379 0-.379.555 0 .605v-.126Zm-1.672 1.966a30.02 30.02 0 0 0 5.618.403.302.302 0 0 0 0-.579 28.527 28.527 0 0 1-5.467-.404c-.354 0-.506.504-.151.58Zm12.551.151c1.024.029 2.049-.03 3.062-.176.38 0 .38-.63 0-.58a15.601 15.601 0 0 1-3.062.151c-.379 0-.379.58 0 .605Zm8.833-6.955c.38.201.38.277 0 .479-.447.231-.924.4-1.417.504a16.52 16.52 0 0 1-3.669.504.302.302 0 0 0-.358.154.29.29 0 0 0 0 .271.303.303 0 0 0 .358.154c1.784.004 3.553-.33 5.213-.983.886-.378 1.113-1.134.152-1.587-.329-.177-.633.353-.279.504Z" opacity=".6"/><path fill="url(#a)" d="M546.042 320.028s-18.043 2.898-4.327 4.41c13.715 1.512 2.53.933-8.706.454-11.236-.479.355 7.56 27.053 4.486 24.673-2.898 17.967-6.956 11.134-7.938-6.832-.983 8.123 1.033-4.378 4.006-12.501 2.974 19.663-5.846-20.776-5.418Z" opacity=".7" style="mix-blend-mode:multiply"/><g opacity=".5"><path fill="url(#b)" d="M569.35 326.252c-7.569.741-15.187.859-22.775.353-9.085-.983-9.288 1.865 4.504 2.52s22.093-2.797 18.271-2.873Z" opacity=".5" style="mix-blend-mode:multiply"/><path fill="url(#c)" d="M568.085 329.781c-7.364.781-15.184 2.872-22.371-.177-.784-.353-3.416 1.033-2.226 1.537 6.301 2.722 13.336 1.588 20.042.706a45.728 45.728 0 0 1-14.551 2.142c-.38 0-2.531.882-1.873 1.487a11.24 11.24 0 0 0 6.327 2.142l-.709.151c-.354 0-2.176.832-1.493 1.436a6.41 6.41 0 0 0 3.417 1.512c.835.152 3.391-1.335 2.252-1.562a4.218 4.218 0 0 1-1.772-.479 38.764 38.764 0 0 0 4.682-1.235c.506-.151 2.024-1.461.633-1.436a23.73 23.73 0 0 1-8.351-.63 36.199 36.199 0 0 0 16.398-4.511c.835-.504.481-1.159-.405-1.083Z" style="mix-blend-mode:multiply"/></g><path fill="url(#d)" d="M550.798 323.959s-6.909 2.52-1.316 2.823c5.593.302-4.201 1.613-.506 3.024 3.694 1.411-2.151 2.318 5.77 2.117 7.92-.202-1.772-1.916 2.884-2.974 4.657-1.058 12.147-5.67 2.658-5.343l-9.49.353Z" opacity=".4" style="mix-blend-mode:multiply"/><path fill="url(#e)" d="M522.684 324.539s-5.542 2.898 10.123 6.124c15.664 3.225-8.149 3.377-14.703-1.537s8.427-7.686 4.58-4.587Z" opacity=".7" style="mix-blend-mode:multiply"/><path fill="url(#f)" d="M585.445 328.168s6.656 2.772-12.374 5.67c-19.031 2.898 9.869 3.276 17.84-1.311 7.972-4.586-9.996-7.333-5.466-4.359Z" opacity=".7" style="mix-blend-mode:multiply"/><path fill="url(#g)" d="M554.369 325.547s-5.339-56.902 20.245-104.304c0 0 1.772-3.553 1.164.882-.405 3.075-14.222 84.471-16.297 103.724l-5.112-.302Z"/><path fill="url(#h)" d="m563.352 191.028-.759 5.645c-.228 1.814-.532 4.007-.835 6.501-.304 2.495-.658 5.343-1.038 8.442-.379 3.1-.734 6.427-1.113 10.081-.38 3.654-.81 7.282-1.19 11.163-.202 1.916-.404 3.881-.607 5.872-.202 1.991-.38 4.032-.557 6.048-.379 4.082-.708 8.215-1.063 12.348-.151 2.067-.303 4.133-.43 6.199-.126 2.067-.278 4.108-.43 6.149-.228 4.058-.455 8.064-.658 11.945-.202 3.881-.354 7.56-.582 11.189-.228 3.629-.278 6.93-.38 10.08-.101 3.15-.151 5.973-.202 8.493-.051 2.52 0 4.712 0 6.552v5.695h-.177s-.203-2.066-.456-5.695c0-.907-.151-1.915-.227-2.999-.076-1.084 0-2.268-.127-3.553-.126-1.285 0-2.52 0-4.032V292.61c0-3.578.278-7.333.456-11.239.177-3.906.506-7.888.835-11.97.177-2.041.354-4.083.556-6.149.203-2.067.355-4.133.557-6.199.405-4.133.81-8.266 1.265-12.349.228-2.016.431-4.032.658-6.022l.684-5.897a973.236 973.236 0 0 1 2.733-21.093c.43-3.1.835-5.922 1.214-8.417.38-2.495.684-4.687.962-6.476.557-3.604.886-5.645.886-5.645l.025-.126Z"/><path fill="url(#i)" d="m595.643 191.658-.784 1.26a168.05 168.05 0 0 0-2.024 3.881l-1.367 2.797a70.873 70.873 0 0 0-1.569 3.327l-1.771 3.78c-.582 1.36-1.215 2.772-1.848 4.233a244.45 244.45 0 0 0-1.974 4.662c-.658 1.613-1.341 3.251-2.024 5.04-.683 1.79-1.367 3.478-2.05 5.292l-1.063 2.747c-.329.933-.658 1.89-1.012 2.823l-2.075 5.796a823.867 823.867 0 0 0-1.974 5.972c-1.367 4.007-2.531 8.14-3.771 12.273l-.784 3.15c-.253 1.033-.532 2.066-.81 3.099a434.886 434.886 0 0 1-1.62 6.2c-.556 2.066-.986 4.082-1.467 6.098a326.679 326.679 0 0 0-1.367 5.998c-.43 1.965-.886 3.881-1.29 5.796-.405 1.915-.76 3.755-1.164 5.569-.81 3.579-1.367 7.031-1.974 10.08a311.796 311.796 0 0 0-.835 4.562c-.254 1.436-.557 2.822-.734 4.107-.38 2.52-.709 4.864-1.013 6.729-.582 3.704-.961 5.846-.961 5.846h-.177s.177-2.142.506-5.897c.152-1.89.379-4.183.658-6.779 0-1.31.303-2.696.506-4.158.202-1.461.43-2.998.658-4.611.228-1.613.481-3.276.734-5.04.253-1.764.607-3.503.936-5.318.329-1.814.709-3.704 1.088-5.619.38-1.915.759-3.881 1.24-5.847.481-1.965.962-3.956 1.468-5.972.506-2.016.962-4.083 1.569-6.124l1.746-6.174c.304-1.033.607-2.066.886-3.125.278-1.058.658-2.041.961-3.074 1.316-4.133 2.531-8.266 3.973-12.248l2.076-5.972 1.999-5.62 1.063-2.822 1.189-2.697c.734-1.814 1.468-3.578 2.151-5.292.683-1.713 1.468-3.351 2.151-5.04.683-1.688 1.367-3.125 2.05-4.586l1.948-4.234c.658-1.31 1.266-2.52 1.848-3.755a80.738 80.738 0 0 1 1.645-3.301l1.442-2.772c.886-1.663 1.594-2.974 2.1-3.83l.76-1.361.151.151Z"/><path fill="url(#j)" d="M566.312 172.052s-2.758-.353-3.72 6.023c-.835 5.569-3.442 15.12-.962 16.229 3.492 1.487 4.53-.832 5.568-6.074 2.075-10.584 2.733-15.926-.886-16.178Z"/><path fill="url(#k)" d="M554.368 325.547h-4.151s-6.503-50.376-21.156-50.678c-7.288-.126-10.122 21.647-10.831 17.338 0 0 2.177-28.93 11.262-29.913 9.464-1.058 23.686 20.438 24.876 63.253Z"/><path fill="url(#l)" d="M532.933 262.849c2.53 1.486 10.856 7.56 14.323 26.258 0 0-8.3-25.049-18.651-22.226.456 0 11.844-3.402 19.385 33.491 0 0 4.302 21.924-.127 6.527-2.707-9.324-8.325-28.804-15.386-30.997 12.248 7.208 17.715 49.645 17.715 49.645h4.175c-1.037-37.851-12.273-59.019-21.434-62.698Z" opacity=".4" style="mix-blend-mode:multiply"/><path fill="#FFFB50" d="M527.113 273.685c6.96-1.916 13.919 7.56 15.69 13.935 1.772 6.376-.481-18.471-13.918-19.404a5.588 5.588 0 0 0-4.049 2.016c-1.772 2.092 2.682-7.761 9.819-3.351 5.972 3.679-1.19-6.956-7.289-3.806-2.859 1.865-4.884 6.754-6.275 11.996a70.303 70.303 0 0 0-1.392 10.08c-.152 4.838.455-9.526 7.414-11.466Zm45.855-48.637a214.638 214.638 0 0 0-13.69 39.918c-3.644 18.32 1.366 3.855 4.833-7.56 3.467-11.416-1.341 7.736-1.948 18.32-.608 10.584 3.669-3.452 5.213-14.263 1.543-10.811 10.805-47.225 5.592-36.415Z" opacity=".2" style="mix-blend-mode:screen"/><path fill="#FFFB50" d="M533.439 264.512s-7.111-2.873-11.16 8.694c-2.708 7.736 1.366-10.584 7.895-10.685 3.948-.05 7.01 4.662 3.265 1.991Z" opacity=".4" style="mix-blend-mode:screen"/><path fill="#FFFB50" d="M532.935 270.132s-7.592-3.554-11.666 8.013c-2.708 7.737 1.012-11.264 8.503-10.685 4.631.378 6.883 5.343 3.163 2.672Z" opacity=".4" style="mix-blend-mode:screen"/><path fill="#FFFB50" d="M570.689 231.273s-5.618 13.431-8.149 22.378c-2.53 8.946 0 0 3.012-5.796 3.011-5.797.734 8.971 1.872 3.704 3.518-16.506 6.631-26.662 3.265-20.286Z" opacity=".3" style="mix-blend-mode:screen"/><path fill="url(#m)" d="M605.785 167.468s-3.119-1.218-6.147 5.952c-2.64 6.265-8.539 16.666-5.972 18.687 3.638 2.759 5.543.352 8.321-5.471 5.587-11.764 7.952-17.816 3.798-19.168Z"/><path fill="url(#n)" d="M558.213 289.41c1.797-11.567 2.682-17.792-.279-5.948-1.695 6.804-2.125 3.78-2.201 0a214.771 214.771 0 0 0-1.367 42.085l5.062.302c.759-7.081 3.112-22.68 5.82-39.489-6.048 14.188-8.579 13.155-7.035 3.05Z" opacity=".4" style="mix-blend-mode:multiply"/><path fill="url(#o)" d="M601.97 235.481a9.106 9.106 0 0 0-1.063-.907 18.21 18.21 0 0 0-13.64-1.688c-23.079 10.08-33.404 92.485-33.404 92.485l4.555.176s9.996-57.28 34.29-85.328c0 0 5.137-6.099 9.262-4.738Z"/><path fill="url(#p)" d="M607.309 250.879c0-.504 0-10.257-5.34-15.398-4.125-1.361-9.262 4.738-9.262 4.738s10.274 5.04 14.02 11.844c0 0 1.29 2.369.582-1.184Z"/><path fill="url(#q)" d="M560.009 306.899a418.708 418.708 0 0 1 17.487-57.961 250.698 250.698 0 0 0-14.248 36.742c-4.53 14.818-3.138 5.519-2.176 1.235-4.808 20.362-7.111 38.581-7.111 38.581l4.555.177a291.386 291.386 0 0 1 9.161-35.911c-6.732 18.875-12.046 39.036-7.668 17.137Z" opacity=".4" style="mix-blend-mode:multiply"/><path fill="#FFFB50" d="M587.264 232.886a17.986 17.986 0 0 0-5.061 3.402c-1.215 1.361-7.592 9.021-14.324 26.989v.252s-1.973 7.308 1.772-1.184c3.745-8.493 8.3-17.388 11.843-20.765 0 0-7.288 16.405-12.83 33.793-5.542 17.389 1.974-5.342 12.451-21.924 8.224-13.054 14.019-19.152 20.067-18.547l-.405-.328a11.619 11.619 0 0 0-3.72-1.588 14.423 14.423 0 0 0-7.591 2.52s-6.251 4.612.202-1.184a9.79 9.79 0 0 1 3.619-1.966 13.352 13.352 0 0 0-6.023.53Z" opacity=".25" style="mix-blend-mode:screen"/><path fill="#FFFB50" d="M599.464 234.649s-11.514 1.79-19.207 19.379c-4.96 11.341 4.732-13.23 19.207-19.379Z" opacity=".4" style="mix-blend-mode:screen"/><path fill="#fff" d="M1234.65 301.919c-.48.188-1.61.545-1.39 1.278.23.733 1.54.864 2.11.977 3.14.648 6.38.648 9.52 0a.2.2 0 0 0 .11-.108.216.216 0 0 0 .02-.157.293.293 0 0 0-.09-.13.242.242 0 0 0-.16-.037c-2.47.489-5 .597-7.51.319a13.43 13.43 0 0 1-2.98-.545c-.17 0-.66-.207-.68-.451-.02-.244.92-.601 1.09-.657.17-.057.15-.527-.11-.433l.07-.056Zm2.39 4.266c2.14.262 4.29.394 6.44.394a.22.22 0 0 0 .16-.066.228.228 0 0 0 .06-.159c0-.06-.02-.117-.06-.16a.224.224 0 0 0-.16-.066c-2.15.031-4.3-.069-6.44-.3-.28 0-.28.413 0 .451v-.094Zm-1.24 1.465c1.38.231 2.77.332 4.17.301a.225.225 0 0 0 .12-.081.215.215 0 0 0 .04-.135.215.215 0 0 0-.04-.135.225.225 0 0 0-.12-.081c-1.36.031-2.72-.07-4.06-.301-.26 0-.37.376-.11.432Zm9.31.113c.76.022 1.52-.022 2.28-.131.28 0 .28-.47 0-.433-.76.113-1.52.151-2.28.113-.28 0-.28.432 0 .451Zm6.56-5.186c.28.15.28.206 0 .357-.34.172-.69.298-1.06.376-.89.227-1.8.353-2.72.375a.212.212 0 0 0-.1-.006.237.237 0 0 0-.1.042.153.153 0 0 0-.06.079.188.188 0 0 0 0 .203c.01.031.03.058.06.079.03.021.06.035.1.041a.2.2 0 0 0 .1-.005c1.33.002 2.64-.247 3.87-.733.66-.282.83-.846.11-1.184-.24-.132-.47.263-.2.376Z" opacity=".6"/><path fill="url(#r)" d="M1235.99 298.01s-13.39 2.161-3.21 3.289c10.17 1.127 1.87.695-6.46.338-8.34-.357.26 5.637 20.07 3.345 18.3-2.161 13.33-5.187 8.26-5.919-5.07-.733 6.03.77-3.25 2.987-9.27 2.218 14.59-4.359-15.41-4.04Z" opacity=".7" style="mix-blend-mode:multiply"/><g opacity=".5"><path fill="url(#s)" d="M1253.28 302.652c-5.61.552-11.27.64-16.9.263-6.74-.733-6.89 1.39 3.35 1.879 10.23.489 16.39-2.086 13.55-2.142Z" opacity=".5" style="mix-blend-mode:multiply"/><path fill="url(#t)" d="M1252.34 305.283c-5.46.582-11.26 2.142-16.6-.132-.58-.263-2.53.771-1.65 1.146 4.68 2.03 9.9 1.184 14.87.527a33.765 33.765 0 0 1-10.79 1.597c-.28 0-1.88.658-1.39 1.109 1.36.997 3 1.554 4.69 1.597l-.52.113c-.27 0-1.62.62-1.11 1.071a4.72 4.72 0 0 0 2.53 1.127c.62.113 2.52-.996 1.67-1.165a3.12 3.12 0 0 1-1.31-.357c1.18-.234 2.34-.542 3.47-.921.38-.113 1.5-1.09.47-1.071-2.07.214-4.17.055-6.19-.47a26.748 26.748 0 0 0 12.16-3.363c.62-.376.36-.865-.3-.808Z" style="mix-blend-mode:multiply"/></g><path fill="url(#u)" d="M1239.52 300.942s-5.13 1.879-.98 2.105c4.15.225-3.11 1.202-.37 2.254 2.74 1.053-1.6 1.729 4.28 1.579 5.88-.15-1.32-1.428 2.14-2.217 3.45-.79 9.01-4.228 1.97-3.984l-7.04.263Z" opacity=".4" style="mix-blend-mode:multiply"/><path fill="url(#v)" d="M1218.66 301.374s-4.11 2.161 7.51 4.566c11.62 2.405-6.05 2.518-10.91-1.146-4.86-3.664 6.25-5.731 3.4-3.42Z" opacity=".7" style="mix-blend-mode:multiply"/><path fill="url(#w)" d="M1265.22 304.08s4.94 2.067-9.18 4.228c-14.12 2.161 7.32 2.443 13.24-.977 5.91-3.42-7.42-5.468-4.06-3.251Z" opacity=".7" style="mix-blend-mode:multiply"/><path fill="url(#x)" d="M1242.16 302.126s-3.96-42.43 15.02-77.776c0 0 1.32-2.649.87.658-.3 2.292-10.55 62.987-12.09 77.343l-3.8-.225Z"/><path fill="url(#y)" d="m1248.83 201.819-.56 4.21c-.17 1.352-.4 2.987-.62 4.848-.23 1.86-.49 3.983-.77 6.295-.28 2.311-.55 4.791-.83 7.516-.28 2.725-.6 5.431-.88 8.324-.15 1.428-.3 2.894-.45 4.379-.15 1.484-.28 3.006-.41 4.509-.28 3.045-.53 6.126-.79 9.208-.11 1.541-.23 3.082-.32 4.623-.09 1.54-.21 3.063-.32 4.585-.17 3.025-.34 6.013-.49 8.907-.15 2.893-.26 5.637-.43 8.343-.17 2.706-.21 5.167-.28 7.516-.08 2.349-.11 4.454-.15 6.333-.04 1.879 0 3.514 0 4.885v4.247h-.13s-.15-1.541-.34-4.247c0-.676-.11-1.428-.17-2.236-.06-.808 0-1.691-.09-2.649-.1-.959 0-1.879 0-3.007v-10.842c0-2.669.2-5.468.33-8.381.14-2.913.38-5.882.62-8.926.13-1.522.27-3.044.42-4.585.15-1.541.26-3.081.41-4.622.3-3.082.6-6.164.94-9.208.17-1.503.32-3.006.49-4.491l.5-4.397c.68-5.769 1.39-11.143 2.03-15.728.32-2.311.62-4.416.9-6.276.28-1.861.51-3.495.72-4.83.41-2.687.65-4.209.65-4.209l.02-.094Z"/><path fill="url(#z)" d="m1272.79 202.29-.58.939c-.36.658-.87 1.635-1.51 2.894l-1.01 2.086c-.37.751-.77 1.578-1.16 2.48l-1.32 2.819c-.43 1.014-.9 2.067-1.37 3.157-.47 1.089-.97 2.273-1.46 3.476-.49 1.203-1 2.424-1.5 3.758-.51 1.334-1.02 2.593-1.53 3.946l-.78 2.048c-.25.696-.49 1.41-.75 2.105l-1.54 4.322c-.49 1.466-.98 2.95-1.47 4.453-1.01 2.988-1.88 6.07-2.8 9.152l-.58 2.348c-.19.771-.39 1.541-.6 2.312-.39 1.559-.79 3.081-1.2 4.622-.41 1.541-.73 3.044-1.09 4.548-.36 1.503-.69 3.006-1.01 4.472-.32 1.466-.66 2.894-.96 4.322-.3 1.428-.56 2.8-.87 4.153-.6 2.668-1.01 5.242-1.46 7.516-.22 1.184-.43 2.33-.62 3.401-.19 1.071-.41 2.105-.54 3.063-.29 1.879-.53 3.627-.75 5.017-.44 2.763-.72 4.36-.72 4.36h-.13s.13-1.597.38-4.397c.11-1.409.28-3.119.48-5.055 0-.977.23-2.011.38-3.1.15-1.09.32-2.237.49-3.439.17-1.203.35-2.443.54-3.758.19-1.316.45-2.612.7-3.965.24-1.353.52-2.763.8-4.191.29-1.428.57-2.893.92-4.359.36-1.466.72-2.95 1.09-4.454.38-1.503.72-3.044 1.17-4.566l1.29-4.604c.23-.77.45-1.54.66-2.33.21-.789.49-1.522.71-2.292.98-3.082 1.88-6.164 2.95-9.133l1.54-4.453 1.48-4.19.79-2.105.89-2.011c.54-1.353 1.08-2.668 1.59-3.946s1.09-2.499 1.6-3.758c.5-1.259 1.01-2.33 1.52-3.42l1.44-3.157c.49-.977.94-1.879 1.37-2.8.44-.92.83-1.71 1.22-2.461l1.07-2.067c.66-1.241 1.19-2.218 1.56-2.857l.57-1.014.11.113Z"/><path fill="url(#A)" d="M1251.03 187.67s-2.05-.263-2.76 4.491c-.62 4.153-2.56 11.275-.72 12.102 2.59 1.108 3.36-.621 4.13-4.529 1.54-7.892 2.03-11.876-.65-12.064Z"/><path fill="url(#B)" d="M1242.17 302.126h-3.08s-4.83-37.563-15.7-37.789c-5.41-.094-7.51 16.142-8.03 12.928 0 0 1.61-21.572 8.35-22.305 7.02-.789 17.57 15.24 18.46 47.166Z"/><path fill="url(#C)" d="M1226.26 255.374c1.88 1.109 8.06 5.637 10.63 19.58 0 0-6.16-18.678-13.84-16.573.34 0 8.79-2.537 14.38 24.973 0 0 3.19 16.348-.09 4.867-2.01-6.953-6.18-21.478-11.42-23.113 9.09 5.374 13.15 37.018 13.15 37.018h3.09c-.77-28.224-9.1-44.008-15.9-46.752Z" opacity=".4" style="mix-blend-mode:multiply"/><path fill="#FFFB50" d="M1221.95 263.454c5.16-1.428 10.32 5.637 11.64 10.392 1.31 4.754-.36-13.774-10.33-14.47-.58.028-1.14.175-1.66.434s-.98.623-1.34 1.07c-1.32 1.559 1.99-5.788 7.28-2.499 4.43 2.743-.88-5.187-5.41-2.838-2.12 1.391-3.62 5.036-4.65 8.945a52.869 52.869 0 0 0-1.04 7.516c-.11 3.608.34-7.103 5.51-8.55Zm34.02-36.267a160.427 160.427 0 0 0-10.16 29.765c-2.7 13.661 1.01 2.875 3.59-5.637 2.57-8.513-1 5.769-1.45 13.661-.45 7.892 2.72-2.575 3.87-10.636 1.14-8.061 8.01-35.214 4.15-27.153Z" opacity=".2" style="mix-blend-mode:screen"/><path fill="#FFFB50" d="M1226.64 256.614s-5.28-2.142-8.28 6.483c-2.01 5.769 1.01-7.892 5.85-7.967 2.93-.038 5.21 3.476 2.43 1.484Z" opacity=".4" style="mix-blend-mode:screen"/><path fill="#FFFB50" d="M1226.26 260.804s-5.63-2.649-8.65 5.976c-2.01 5.769.75-8.4 6.31-7.968 3.43.282 5.1 3.984 2.34 1.992Z" opacity=".4" style="mix-blend-mode:screen"/><path fill="#FFFB50" d="M1254.28 231.829s-4.17 10.015-6.05 16.686c-1.88 6.671 0 0 2.23-4.322 2.24-4.322.55 6.69 1.39 2.762 2.61-12.308 4.92-19.88 2.43-15.126Z" opacity=".3" style="mix-blend-mode:screen"/><path fill="url(#D)" d="M1280.31 184.252s-2.31-.909-4.56 4.438c-1.96 4.672-6.33 12.427-4.43 13.934 2.7 2.057 4.11.263 6.17-4.079 4.15-8.772 5.9-13.285 2.82-14.293Z"/><path fill="url(#E)" d="M1245.02 275.179c1.33-8.625 1.99-13.266-.21-4.434-1.26 5.073-1.58 2.818-1.63 0a161.376 161.376 0 0 0-1.02 31.381l3.76.225c.56-5.28 2.31-16.912 4.32-29.445-4.49 10.579-6.37 9.808-5.22 2.273Z" opacity=".4" style="mix-blend-mode:multiply"/><path fill="url(#F)" d="M1277.48 234.967a6.323 6.323 0 0 0-.79-.677 13.45 13.45 0 0 0-10.12-1.259c-17.12 7.517-24.78 68.963-24.78 68.963l3.38.132s7.41-42.712 25.44-63.627c0 0 3.81-4.547 6.87-3.532Z"/><path fill="url(#G)" d="M1281.44 246.448c0-.376 0-7.648-3.96-11.481-3.06-1.015-6.87 3.533-6.87 3.533s7.62 3.758 10.4 8.831c0 0 .96 1.767.43-.883Z"/><path fill="url(#H)" d="M1246.35 288.22c3.28-14.7 7.62-29.144 12.97-43.219a188.91 188.91 0 0 0-10.57 27.397c-3.36 11.049-2.32 4.115-1.61.921-3.57 15.183-5.28 28.769-5.28 28.769l3.38.131c1.7-9.06 3.97-18.004 6.8-26.777-4.99 14.075-8.94 29.108-5.69 12.778Z" opacity=".4" style="mix-blend-mode:multiply"/><path fill="#FFFB50" d="M1266.57 233.031a13.479 13.479 0 0 0-3.75 2.537c-.9 1.015-5.63 6.727-10.63 20.125v.188s-1.46 5.45 1.32-.883c2.77-6.333 6.15-12.966 8.78-15.484 0 0-5.4 12.233-9.52 25.199-4.11 12.966 1.47-3.984 9.24-16.348 6.1-9.734 10.4-14.281 14.89-13.83l-.3-.245a8.582 8.582 0 0 0-2.76-1.183c-2.02.08-3.97.731-5.63 1.879 0 0-4.64 3.438.15-.884a7.215 7.215 0 0 1 2.68-1.465 9.862 9.862 0 0 0-4.47.394Z" opacity=".25" style="mix-blend-mode:screen"/><path fill="#FFFB50" d="M1275.62 234.347s-8.54 1.334-14.25 14.45c-3.68 8.456 3.51-9.865 14.25-14.45Z" opacity=".4" style="mix-blend-mode:screen"/><path fill="#100C18" d="M750.08 301.46c-2.106-1.131-4.761-1.841-7.515-2.006l-.053-.077c-.75-1.504-2.174-2.847-4.104-3.886-3.768-2.05-8.883-2.785-13.724-1.952-1.689.298-3.241.751-4.595 1.369a24.49 24.49 0 0 0-5.896.546c-3.745.794-6.811 2.403-8.599 4.519-2.004 2.35-2.221 5.13-.597 7.63.859 1.378 2.296 2.619 4.105 3.626-.659 1.557-.49 3.216.506 4.751.759 1.174 1.97 2.229 3.488 3.061 3.329 1.822 7.888 2.523 12.172 1.9.067.136.144.267.232.394.762 1.157 1.97 2.23 3.489 3.062 3.709 2.025 8.9 2.647 13.543 1.65 2.818-.611 5.17-1.733 6.693-3.219a31.43 31.43 0 0 0 1.242-.213c2.753-.585 4.988-1.774 6.3-3.32 1.426-1.707 1.61-3.706.429-5.508-.627-.983-1.668-1.896-2.982-2.615-.39-.211-.802-.407-1.237-.588 1.603-1.877 1.814-4.099.476-6.147-.732-1.136-1.884-2.166-3.373-2.977Z" opacity=".05"/><path fill="#fff" d="M707.638 306.935c.967 1.513 2.621 2.763 4.661 3.659-.989 1.447-1.099 3.107-.051 4.717 2.119 3.294 8.203 5.019 13.613 3.873a13.635 13.635 0 0 0 1.58-.433c.047.633.28 1.272.7 1.916 2.119 3.294 8.203 5.019 13.614 3.856 2.657-.562 4.64-1.73 5.749-3.145a13.766 13.766 0 0 0 2.186-.288c4.45-.951 6.624-3.925 4.869-6.634-.993-1.551-3.096-2.699-5.529-3.191 2.378-1.589 3.2-3.963 1.787-6.159-1.698-2.666-6.115-4.256-10.569-4.038a4.157 4.157 0 0 0-.423-1.115c-1.909-3.738-8.436-5.919-14.551-4.86-1.72.294-3.217.807-4.452 1.474a21.36 21.36 0 0 0-5.847.396c-6.69 1.424-9.984 5.899-7.337 9.972Z" opacity=".05"/><defs><linearGradient id="a" x1="552.343" x2="554.094" y1="309.692" y2="343.275" gradientUnits="userSpaceOnUse"><stop stop-color="#D0F3F0"/><stop offset=".09" stop-color="#BEEFEB"/><stop offset=".32" stop-color="#95E4DE"/><stop offset=".44" stop-color="#85E0D9"/><stop offset="1" stop-color="#18779E"/></linearGradient><linearGradient id="b" x1="555.237" x2="555.285" y1="341.568" y2="326.976" gradientUnits="userSpaceOnUse"><stop stop-color="#D0F3F0"/><stop offset=".09" stop-color="#BEEFEB"/><stop offset=".32" stop-color="#95E4DE"/><stop offset=".44" stop-color="#85E0D9"/><stop offset="1" stop-color="#18779E"/></linearGradient><linearGradient id="c" x1="555.928" x2="556.106" y1="343.801" y2="329.127" gradientUnits="userSpaceOnUse"><stop stop-color="#D0F3F0"/><stop offset=".09" stop-color="#BEEFEB"/><stop offset=".32" stop-color="#95E4DE"/><stop offset=".44" stop-color="#85E0D9"/><stop offset="1" stop-color="#18779E"/></linearGradient><linearGradient id="e" x1="529.234" x2="522.09" y1="302.316" y2="391.551" gradientUnits="userSpaceOnUse"><stop stop-color="#D0F3F0"/><stop offset=".09" stop-color="#BEEFEB"/><stop offset=".32" stop-color="#95E4DE"/><stop offset=".44" stop-color="#85E0D9"/><stop offset="1" stop-color="#18779E"/></linearGradient><linearGradient id="f" x1="583.164" x2="587.858" y1="314.378" y2="398.717" gradientUnits="userSpaceOnUse"><stop stop-color="#D0F3F0"/><stop offset=".09" stop-color="#BEEFEB"/><stop offset=".32" stop-color="#95E4DE"/><stop offset=".44" stop-color="#85E0D9"/><stop offset="1" stop-color="#18779E"/></linearGradient><linearGradient id="h" x1="551.737" x2="561.173" y1="325.194" y2="191.249" gradientUnits="userSpaceOnUse"><stop offset=".08" stop-color="#6C4A05"/><stop offset=".61" stop-color="#BE9E00"/></linearGradient><linearGradient id="i" x1="590.532" x2="557.465" y1="190.826" y2="320.07" gradientUnits="userSpaceOnUse"><stop offset=".39" stop-color="#BE9E00"/><stop offset=".92" stop-color="#6C4A05"/></linearGradient><linearGradient id="j" x1="561.2" x2="568.233" y1="182.762" y2="184.032" gradientUnits="userSpaceOnUse"><stop offset=".16" stop-color="#B56E19"/><stop offset=".63" stop-color="#7F510A"/><stop offset=".79" stop-color="#6B4604"/></linearGradient><linearGradient id="m" x1="596.611" x2="604.436" y1="178.492" y2="182.066" gradientUnits="userSpaceOnUse"><stop offset=".16" stop-color="#B56E19"/><stop offset=".63" stop-color="#7F510A"/><stop offset=".79" stop-color="#6B4604"/></linearGradient><linearGradient id="r" x1="1240.66" x2="1241.97" y1="290.303" y2="315.344" gradientUnits="userSpaceOnUse"><stop stop-color="#D0F3F0"/><stop offset=".09" stop-color="#BEEFEB"/><stop offset=".32" stop-color="#95E4DE"/><stop offset=".44" stop-color="#85E0D9"/><stop offset="1" stop-color="#18779E"/></linearGradient><linearGradient id="s" x1="1242.81" x2="1242.85" y1="314.072" y2="303.192" gradientUnits="userSpaceOnUse"><stop stop-color="#D0F3F0"/><stop offset=".09" stop-color="#BEEFEB"/><stop offset=".32" stop-color="#95E4DE"/><stop offset=".44" stop-color="#85E0D9"/><stop offset="1" stop-color="#18779E"/></linearGradient><linearGradient id="t" x1="1243.32" x2="1243.46" y1="315.738" y2="304.795" gradientUnits="userSpaceOnUse"><stop stop-color="#D0F3F0"/><stop offset=".09" stop-color="#BEEFEB"/><stop offset=".32" stop-color="#95E4DE"/><stop offset=".44" stop-color="#85E0D9"/><stop offset="1" stop-color="#18779E"/></linearGradient><linearGradient id="v" x1="1223.52" x2="1218.16" y1="284.803" y2="351.338" gradientUnits="userSpaceOnUse"><stop stop-color="#D0F3F0"/><stop offset=".09" stop-color="#BEEFEB"/><stop offset=".32" stop-color="#95E4DE"/><stop offset=".44" stop-color="#85E0D9"/><stop offset="1" stop-color="#18779E"/></linearGradient><linearGradient id="w" x1="1263.53" x2="1267.05" y1="293.798" y2="356.684" gradientUnits="userSpaceOnUse"><stop stop-color="#D0F3F0"/><stop offset=".09" stop-color="#BEEFEB"/><stop offset=".32" stop-color="#95E4DE"/><stop offset=".44" stop-color="#85E0D9"/><stop offset="1" stop-color="#18779E"/></linearGradient><linearGradient id="y" x1="1240.21" x2="1247.28" y1="301.862" y2="201.989" gradientUnits="userSpaceOnUse"><stop offset=".08" stop-color="#6C4A05"/><stop offset=".61" stop-color="#BE9E00"/></linearGradient><linearGradient id="z" x1="1269" x2="1244.23" y1="201.669" y2="297.982" gradientUnits="userSpaceOnUse"><stop offset=".39" stop-color="#BE9E00"/><stop offset=".92" stop-color="#6C4A05"/></linearGradient><linearGradient id="A" x1="1247.23" x2="1252.45" y1="195.656" y2="196.594" gradientUnits="userSpaceOnUse"><stop offset=".16" stop-color="#B56E19"/><stop offset=".63" stop-color="#7F510A"/><stop offset=".79" stop-color="#6B4604"/></linearGradient><linearGradient id="D" x1="1273.51" x2="1279.32" y1="192.472" y2="195.115" gradientUnits="userSpaceOnUse"><stop offset=".16" stop-color="#B56E19"/><stop offset=".63" stop-color="#7F510A"/><stop offset=".79" stop-color="#6B4604"/></linearGradient><radialGradient id="d" cx="0" cy="0" r="1" gradientTransform="matrix(24.52162 -2.4419 2.4319 24.42111 562.094 326.021)" gradientUnits="userSpaceOnUse"><stop stop-color="#2C2F1A"/><stop offset=".1" stop-color="#343822"/><stop offset=".27" stop-color="#4B4F39"/><stop offset=".48" stop-color="#70755E"/><stop offset=".72" stop-color="#A3A992"/><stop offset=".98" stop-color="#E4ECD3"/><stop offset="1" stop-color="#E8F0D7"/></radialGradient><radialGradient id="g" cx="0" cy="0" r="1" gradientTransform="matrix(129.036 0 0 128.496 581.042 187.399)" gradientUnits="userSpaceOnUse"><stop stop-color="#71CD37"/><stop offset=".41" stop-color="#3A9640"/><stop offset=".8" stop-color="#035C56"/></radialGradient><radialGradient id="k" cx="0" cy="0" r="1" gradientTransform="matrix(53.2694 0 0 53.0466 514.08 286.537)" gradientUnits="userSpaceOnUse"><stop stop-color="#71CD37"/><stop offset=".41" stop-color="#3A9640"/><stop offset=".8" stop-color="#035C56"/></radialGradient><radialGradient id="l" cx="0" cy="0" r="1" gradientTransform="matrix(53.2694 0 0 53.0466 514.08 286.537)" gradientUnits="userSpaceOnUse"><stop stop-color="#71CD37"/><stop offset=".41" stop-color="#3A9640"/><stop offset=".8" stop-color="#035C56"/></radialGradient><radialGradient id="n" cx="0" cy="0" r="1" gradientTransform="matrix(129.036 0 0 128.496 581.039 187.399)" gradientUnits="userSpaceOnUse"><stop stop-color="#71CD37"/><stop offset=".41" stop-color="#3A9640"/><stop offset=".8" stop-color="#035C56"/></radialGradient><radialGradient id="o" cx="0" cy="0" r="1" gradientTransform="matrix(84.0669 0 0 83.7154 562.973 252.592)" gradientUnits="userSpaceOnUse"><stop stop-color="#71CD37"/><stop offset=".41" stop-color="#3A9640"/><stop offset=".8" stop-color="#035C56"/></radialGradient><radialGradient id="p" cx="0" cy="0" r="1" gradientTransform="matrix(29.6335 0 0 29.5095 605.056 257.909)" gradientUnits="userSpaceOnUse"><stop stop-color="#71CD37"/><stop offset=".41" stop-color="#3A9640"/><stop offset=".8" stop-color="#035C56"/></radialGradient><radialGradient id="q" cx="0" cy="0" r="1" gradientTransform="matrix(83.409 0 0 83.0602 562.236 252.869)" gradientUnits="userSpaceOnUse"><stop stop-color="#71CD37"/><stop offset=".56" stop-color="#3A9640"/><stop offset=".8" stop-color="#035C56"/></radialGradient><radialGradient id="u" cx="0" cy="0" r="1" gradientTransform="matrix(18.1935 -1.82085 1.82231 18.20814 1247.9 302.479)" gradientUnits="userSpaceOnUse"><stop stop-color="#2C2F1A"/><stop offset=".1" stop-color="#343822"/><stop offset=".27" stop-color="#4B4F39"/><stop offset=".48" stop-color="#70755E"/><stop offset=".72" stop-color="#A3A992"/><stop offset=".98" stop-color="#E4ECD3"/><stop offset="1" stop-color="#E8F0D7"/></radialGradient><radialGradient id="x" cx="0" cy="0" r="1" gradientTransform="matrix(95.7363 0 0 95.8151 1261.95 199.114)" gradientUnits="userSpaceOnUse"><stop stop-color="#71CD37"/><stop offset=".41" stop-color="#3A9640"/><stop offset=".8" stop-color="#035C56"/></radialGradient><radialGradient id="B" cx="0" cy="0" r="1" gradientTransform="matrix(39.5225 0 0 39.555 1212.28 273.037)" gradientUnits="userSpaceOnUse"><stop stop-color="#71CD37"/><stop offset=".41" stop-color="#3A9640"/><stop offset=".8" stop-color="#035C56"/></radialGradient><radialGradient id="C" cx="0" cy="0" r="1" gradientTransform="matrix(39.5225 0 0 39.555 1212.27 273.038)" gradientUnits="userSpaceOnUse"><stop stop-color="#71CD37"/><stop offset=".41" stop-color="#3A9640"/><stop offset=".8" stop-color="#035C56"/></radialGradient><radialGradient id="E" cx="0" cy="0" r="1" gradientTransform="matrix(95.7363 0 0 95.8151 1261.95 199.113)" gradientUnits="userSpaceOnUse"><stop stop-color="#71CD37"/><stop offset=".41" stop-color="#3A9640"/><stop offset=".8" stop-color="#035C56"/></radialGradient><radialGradient id="F" cx="0" cy="0" r="1" gradientTransform="matrix(62.3723 0 0 62.4236 1248.55 247.726)" gradientUnits="userSpaceOnUse"><stop stop-color="#71CD37"/><stop offset=".41" stop-color="#3A9640"/><stop offset=".8" stop-color="#035C56"/></radialGradient><radialGradient id="G" cx="0" cy="0" r="1" gradientTransform="matrix(21.9861 0 0 22.0042 1279.77 251.691)" gradientUnits="userSpaceOnUse"><stop stop-color="#71CD37"/><stop offset=".41" stop-color="#3A9640"/><stop offset=".8" stop-color="#035C56"/></radialGradient><radialGradient id="H" cx="0" cy="0" r="1" gradientTransform="matrix(61.8841 0 0 61.935 1248 247.932)" gradientUnits="userSpaceOnUse"><stop stop-color="#71CD37"/><stop offset=".56" stop-color="#3A9640"/><stop offset=".8" stop-color="#035C56"/></radialGradient></defs></svg>