<svg xmlns="http://www.w3.org/2000/svg" width="645" height="87" fill="none"><path fill="#F5F5F5" stroke="#100C18" stroke-width="2" d="m1.176 82.407 7.101-69.495a2 2 0 0 1 .574-1.209l3.018-3.025a2 2 0 0 1 1.433-.588L137.58 9.137l483.474-5.45 14.329-.081a2 2 0 0 0 1.193-.403l1.306-.985c1.29-.973 3.14-.095 3.203 1.52l2.595 67.247.152 3.307a2 2 0 0 1-1.989 2.092L305.188 77.85l-50.405.283-74.439 1.297-161.492 2.182a9 9 0 0 0-3.106.598l-6.628 2.546a5 5 0 0 1-2.39.297l-3.801-.457a2 2 0 0 1-1.751-2.19Z"/></svg>